<svg id="Layer_1" data-name="Layer 1" xmlns="http://www.w3.org/2000/svg" viewBox="0 0 102.96 102.96"><defs><style>.cls-1{fill:none;stroke:#282828;stroke-linecap:round;stroke-linejoin:round;stroke-width:3px;}</style></defs><circle class="cls-1" cx="31.72" cy="78.45" r="5.94"/><circle class="cls-1" cx="73.33" cy="78.45" r="5.94"/><path class="cls-1" d="M25.78,78.45H19.84A1.52,1.52,0,0,1,18.35,77V64.57a6,6,0,0,1,1.75-4.22l4.19-4.19,6.57-11.88a3,3,0,0,1,2.62-1.52H45.1V36.82H85.21A1.49,1.49,0,0,1,86.7,38.3V77a1.52,1.52,0,0,1-1.49,1.49H79.27"/><line class="cls-1" x1="37.67" y1="78.45" x2="67.38" y2="78.45"/><line class="cls-1" x1="45.1" y1="42.79" x2="45.1" y2="78.45"/><path class="cls-1" d="M57,33.88a5.94,5.94,0,1,0-11.88,0v3H57Z"/><path class="cls-1" d="M76.3,51.71a1.49,1.49,0,0,0-1.49-1.49H70.35V45.76a1.48,1.48,0,0,0-1.48-1.48h-6a1.48,1.48,0,0,0-1.48,1.48v4.46H57a1.48,1.48,0,0,0-1.48,1.49v5.94A1.48,1.48,0,0,0,57,59.13h4.46v4.46a1.49,1.49,0,0,0,1.48,1.49h6a1.49,1.49,0,0,0,1.48-1.49V59.13h4.46a1.49,1.49,0,0,0,1.49-1.48Z"/><line class="cls-1" x1="24.29" y1="56.16" x2="45.1" y2="56.16"/></svg>