<svg id="Layer_1" data-name="Layer 1" xmlns="http://www.w3.org/2000/svg" viewBox="0 0 102.93 102.93"><defs><style>.cls-1{fill:none;stroke:#282828;stroke-linecap:round;stroke-linejoin:round;stroke-width:3px;}</style></defs><path class="cls-1" d="M53,62.43V61.17a12.53,12.53,0,0,0-25,0v1.26"/><path class="cls-1" d="M49.27,34.87a8.69,8.69,0,0,1,0,1.25,8.77,8.77,0,0,1-17.54,0c0-.34,0-.92,0-1.25"/><rect class="cls-1" x="25.47" y="62.43" width="57.62" height="22.55" rx="1.25"/><path class="cls-1" d="M63.05,62.43a7.52,7.52,0,1,1,15,0Z"/><path class="cls-1" d="M49.27,34.87a31.33,31.33,0,0,0-17.54,0v-5a2.51,2.51,0,0,1,2.51-2.5H46.76a2.5,2.5,0,0,1,2.51,2.5Z"/><path class="cls-1" d="M41.13,53a.63.63,0,1,1-.63-.62.63.63,0,0,1,.63.62"/><path class="cls-1" d="M41.13,58.67A.63.63,0,1,1,40.5,58a.63.63,0,0,1,.63.63"/><line class="cls-1" x1="68.06" y1="49.9" x2="73.07" y2="49.9"/><line class="cls-1" x1="70.56" y1="49.9" x2="70.56" y2="54.91"/></svg>