<svg id="Layer_1" data-name="Layer 1" xmlns="http://www.w3.org/2000/svg" viewBox="0 0 98.58 98.58"><defs><style>.cls-1{fill:none;stroke:#282828;stroke-linecap:round;stroke-linejoin:round;stroke-width:3px;}</style></defs><path class="cls-1" d="M23.46,62.77H58.34a6.34,6.34,0,0,1,6.35,6.34v6.35a3.17,3.17,0,0,1-3.17,3.17H20.28a3.17,3.17,0,0,1-3.17-3.17V69.11a6.34,6.34,0,0,1,6.35-6.34Z"/><path class="cls-1" d="M17.11,72.28H25"/><path class="cls-1" d="M56.76,72.28h7.93"/><path class="cls-1" d="M23.46,62.77l1.25-9.91a3.17,3.17,0,0,1,3.15-2.78H54a3.17,3.17,0,0,1,3.15,2.78l1.24,9.91"/><path class="cls-1" d="M17.11,59.6l6.35,3.17"/><path class="cls-1" d="M64.69,59.6l-6.35,3.17"/><path class="cls-1" d="M29.8,78.63V81.8a3.17,3.17,0,0,1-6.34,0V78.63"/><path class="cls-1" d="M59.93,78.63V81.8a3.17,3.17,0,0,1-6.34,0V78.63"/><polyline class="cls-1" points="72.61 53.31 83.82 46.85 70.11 46.62 82.77 29.47 64.3 41.04 63.52 27.36 56.48 39.1 50.27 27.97 48.73 41.35"/></svg>