<svg id="Layer_1" data-name="Layer 1" xmlns="http://www.w3.org/2000/svg" viewBox="0 0 101.63 101.63"><defs><style>.cls-1{fill:none;stroke:#282828;stroke-linecap:round;stroke-linejoin:round;stroke-width:3px;}</style></defs><path class="cls-1" d="M46.7,58.58a11.16,11.16,0,0,1-9.52,10.59v6.6h2.16a2.62,2.62,0,0,1,2.6,2l.83,3.74H32.16L29.5,69.17l3.54-4-2-5.9-.24-2A9.26,9.26,0,0,1,40.09,48H53.33a8.3,8.3,0,0,0,7.8-6"/><path class="cls-1" d="M31.72,53.31a10.11,10.11,0,0,1-10.15-9.42,9.29,9.29,0,0,1,.81-3.82"/><path class="cls-1" d="M68.54,36.48l.57,2.6a2.9,2.9,0,0,1-2.6,3.69H62.74a2.91,2.91,0,0,1-2.6-3.69l1.33-6a2.6,2.6,0,0,1,2.6-2.26h3.79a7.32,7.32,0,0,1,7.94,5.2h2.94a2.61,2.61,0,0,1,2.75,2.44,2.68,2.68,0,0,1-.15,1l-1,3.09a2.63,2.63,0,0,1-1.88,1.72L71.9,46c.46,9.49-1.3,15.94-6,18.59L64.48,75.77h1.33a2.61,2.61,0,0,1,2.6,2l.83,3.74H58V65.92H50.67"/></svg>