<svg id="Layer_1" data-name="Layer 1" xmlns="http://www.w3.org/2000/svg" viewBox="0 0 103.04 103.04"><defs><style>.cls-1{fill:none;stroke:#282828;stroke-linecap:round;stroke-linejoin:round;stroke-width:3px;}</style></defs><path class="cls-1" d="M36.62,47.69h23"/><path class="cls-1" d="M36.62,55H51.15"/><path class="cls-1" d="M36.62,40.42h17"/><path class="cls-1" d="M36.62,62.22H46.3"/><path class="cls-1" d="M36.62,69.48H46.3"/><path class="cls-1" d="M51.15,84H29.35a2.42,2.42,0,0,1-2.42-2.42V30.74a2.42,2.42,0,0,1,2.42-2.42h40.5a3.09,3.09,0,0,1,3.09,3.09V47.69"/><path class="cls-1" d="M71.73,62.22H66.81a3.25,3.25,0,0,0-1.21,6.26l5,2a3.24,3.24,0,0,1-1.21,6.26H64.47"/><path class="cls-1" d="M68.1,79.17V76.74"/><path class="cls-1" d="M68.1,62.22V59.79"/><path class="cls-1" d="M53.57,69.48A14.53,14.53,0,1,0,68.1,55,14.53,14.53,0,0,0,53.57,69.48Z"/></svg>