<svg id="Layer_1" data-name="Layer 1" xmlns="http://www.w3.org/2000/svg" viewBox="0 0 99.75 99.75"><defs><style>.cls-1{fill:none;stroke:#282828;stroke-linecap:round;stroke-linejoin:round;stroke-width:3px;}</style></defs><path class="cls-1" d="M30.45,28.22H79.94v52.1H30.45Z"/><path class="cls-1" d="M25.24,28.22H85.15"/><path class="cls-1" d="M77.34,28.22V23a2.61,2.61,0,0,0-2.61-2.61H35.66A2.61,2.61,0,0,0,33.05,23v5.21"/><path class="cls-1" d="M51.29,80.32V71.2a3.91,3.91,0,0,1,7.81,0v9.12"/><path class="cls-1" d="M38.26,69.9h7.82"/><path class="cls-1" d="M64.31,69.9h7.82"/><path class="cls-1" d="M38.26,59.48H48.68"/><path class="cls-1" d="M61.71,59.48H72.13"/><path class="cls-1" d="M38.26,49.06H48.68"/><path class="cls-1" d="M61.71,49.06H72.13"/><path class="cls-1" d="M38.26,38.64H48.68"/><path class="cls-1" d="M61.71,38.64H72.13"/></svg>