<svg id="Layer_1" data-name="Layer 1" xmlns="http://www.w3.org/2000/svg" viewBox="0 0 101.48 101.48"><defs><style>.cls-1{fill:none;stroke:#282828;stroke-linecap:round;stroke-linejoin:round;stroke-width:3px;}</style></defs><path class="cls-1" d="M50.78,40.4V84.63"/><path class="cls-1" d="M44,45.8a63.26,63.26,0,0,0-17.55-3.35"/><path class="cls-1" d="M44,57.31A63.26,63.26,0,0,0,26.47,54"/><path class="cls-1" d="M44,68.76a63.26,63.26,0,0,0-17.55-3.35"/><path class="cls-1" d="M57.53,57.31A63.4,63.4,0,0,1,75.09,54"/><path class="cls-1" d="M57.53,68.76a63.4,63.4,0,0,1,17.56-3.35"/><path class="cls-1" d="M61.58,30.2a1.35,1.35,0,0,1,1-1.31,62.83,62.83,0,0,1,8.28-1.53,1.36,1.36,0,0,1,1.5,1.19c0,.05,0,.11,0,.17V48.5L67,43.1l-5.4,5.4Z"/><path class="cls-1" d="M72.39,31.31c1.72-.16,3.51-.27,5.31-.33a2.7,2.7,0,0,1,2.79,2.61V72.85a2.7,2.7,0,0,1-2.62,2.7C63.18,76,50.78,80,50.78,85c0-4.93-12.4-9-27.1-9.42a2.7,2.7,0,0,1-2.62-2.7V33.69a2.7,2.7,0,0,1,2.7-2.7h.09c14.62.46,26.93,4.49,26.93,9.41,0-1.92,1.89-3.71,5-5.2"/></svg>