<?xml version="1.0" encoding="UTF-8"?>
<svg width="22px" height="21px" viewBox="0 0 22 21" version="1.1" xmlns="http://www.w3.org/2000/svg" xmlns:xlink="http://www.w3.org/1999/xlink">
    <!-- Generator: sketchtool 52.6 (67491) - http://www.bohemiancoding.com/sketch -->
    <title>E16C0F1B-820C-4916-886A-CA4F2E322C04</title>
    <desc>Created with sketchtool.</desc>
    <g id="UI" stroke="none" stroke-width="1" fill="none" fill-rule="evenodd" opacity="0.8">
        <g id="iPhone-SE---parent-landing" transform="translate(-129.000000, -3494.000000)">
            <g id="footer" transform="translate(0.000000, 3165.000000)">
                <g id="social" transform="translate(26.000000, 307.420784)">
                    <g id="icon-/-social-/-in" transform="translate(101.320000, 20.892675)">
                        <g id="logo-linkedin.2.3.1" transform="translate(0.200000, 0.000000)">
                            <g id="Filled_Icons" transform="translate(1.000000, 0.994889)" fill="#000000" fill-rule="nonzero">
                                <path d="M5.527,20.3952299 L0.527,20.3952299 L0.527,7.46166956 L5.527,7.46166956 L5.527,20.3952299 Z M3.018,5.47189104 L2.988,5.47189104 C1.477,5.47189104 0.5,4.29593191 0.5,3.00357073 C0.5,1.68136287 1.508,0.603897774 3.047,0.603897774 C4.588,0.603897774 5.535,1.71618399 5.566,3.03839185 C5.565,4.33075304 4.588,5.47189104 3.018,5.47189104 Z M14.527,11.4412266 C13.422,11.4412266 12.527,12.3326474 12.527,13.4310051 L12.527,20.3952299 L7.527,20.3952299 C7.527,20.3952299 7.586,8.45655882 7.527,7.46166956 L12.527,7.46166956 L12.527,8.93908011 C12.527,8.93908011 14.075,7.50345491 16.465,7.50345491 C19.427,7.50345491 21.527,9.63649748 21.527,13.7752368 L21.527,20.3952299 L16.527,20.3952299 L16.527,13.4310051 C16.527,12.3326474 15.632,11.4412266 14.527,11.4412266 Z" id="Shape"></path>
                            </g>
                            <g id="Frames-24px">
                                <rect id="Rectangle" x="0" y="0" width="24" height="23.8773422"></rect>
                            </g>
                        </g>
                    </g>
                </g>
            </g>
        </g>
    </g>
</svg>