<?xml version="1.0" encoding="UTF-8"?>
<svg width="22px" height="21px" viewBox="0 0 22 21" version="1.1" xmlns="http://www.w3.org/2000/svg" xmlns:xlink="http://www.w3.org/1999/xlink">
    <!-- Generator: sketchtool 52.6 (67491) - http://www.bohemiancoding.com/sketch -->
    <title>C6C70623-6C8E-4645-A1AC-C7A53DF68AA1</title>
    <desc>Created with sketchtool.</desc>
    <g id="UI" stroke="none" stroke-width="1" fill="none" fill-rule="evenodd" opacity="0.5">
        <g id="Desktop-HD---1440" transform="translate(-1137.000000, -4496.000000)">
            <g id="footer" transform="translate(0.000000, 4430.000000)">
                <g id="footer-primary">
                    <g transform="translate(121.000000, 62.606796)">
                        <g id="social" transform="translate(912.000000, 2.000000)">
                            <g id="icon-/-social-/-in" transform="translate(103.000000, 0.393204)">
                                <g id="logo-linkedin.2.3.1" transform="translate(0.200000, 0.000000)">
                                    <g id="Filled_Icons" transform="translate(1.000000, 1.000000)" fill="#FFFFFF" fill-rule="nonzero">
                                        <path d="M5.527,20.5 L0.527,20.5 L0.527,7.5 L5.527,7.5 L5.527,20.5 Z M3.018,5.5 L2.988,5.5 C1.477,5.5 0.5,4.318 0.5,3.019 C0.5,1.69 1.508,0.607 3.047,0.607 C4.588,0.607 5.535,1.725 5.566,3.054 C5.565,4.353 4.588,5.5 3.018,5.5 Z M14.527,11.5 C13.422,11.5 12.527,12.396 12.527,13.5 L12.527,20.5 L7.527,20.5 C7.527,20.5 7.586,8.5 7.527,7.5 L12.527,7.5 L12.527,8.985 C12.527,8.985 14.075,7.542 16.465,7.542 C19.427,7.542 21.527,9.686 21.527,13.846 L21.527,20.5 L16.527,20.5 L16.527,13.5 C16.527,12.396 15.632,11.5 14.527,11.5 Z" id="Shape"></path>
                                    </g>
                                    <g id="Frames-24px">
                                        <rect id="Rectangle" x="0" y="0" width="24" height="24"></rect>
                                    </g>
                                </g>
                            </g>
                        </g>
                    </g>
                </g>
            </g>
        </g>
    </g>
</svg>