<svg id="Layer_1" data-name="Layer 1" xmlns="http://www.w3.org/2000/svg" viewBox="0 0 104.38 104.38"><defs><style>.cls-1{fill:none;stroke:#282828;stroke-linecap:round;stroke-linejoin:round;stroke-width:3px;}.cls-2{fill:#282828;}</style></defs><path class="cls-1" d="M74,64.52a6,6,0,0,1,2.62,4.93v6a3,3,0,0,1-3,3H34.94a3,3,0,0,1-3-3v-6a6,6,0,0,1,5.95-6H55.82"/><path class="cls-1" d="M32,72.43h7.93"/><path class="cls-1" d="M69.16,72.43h7.07"/><path class="cls-1" d="M37.91,63.5l1.18-9.3A3,3,0,0,1,42,51.6H55.82"/><path class="cls-1" d="M32,60.52l5.95,3"/><path class="cls-1" d="M43.87,78.38v3a3,3,0,1,1-6,0v-3"/><path class="cls-1" d="M72.14,78.38v3a3,3,0,0,1-6,0v-3"/><path class="cls-1" d="M88.3,58.61a1.16,1.16,0,0,1-1.23,1.23H62.58a1.16,1.16,0,0,1-1.23-1.23V29.22A1.16,1.16,0,0,1,62.58,28H87.07a1.16,1.16,0,0,1,1.23,1.22Z"/><path class="cls-2" d="M77.5,36.75a2.14,2.14,0,0,1-.7,1.68,2.72,2.72,0,0,1-1.87.61H73.84v2.1H72.16v-6.7h2.77a2.72,2.72,0,0,1,1.89.61A2.18,2.18,0,0,1,77.5,36.75Zm-1.74,0A1,1,0,0,0,75.5,36a1.09,1.09,0,0,0-.77-.24h-.89v1.95h.89a1.1,1.1,0,0,0,.78-.24A1,1,0,0,0,75.76,36.76Z"/><line class="cls-1" x1="68.13" y1="45.77" x2="81.52" y2="45.77"/><line class="cls-1" x1="68.13" y1="51.95" x2="81.52" y2="51.95"/></svg>