<?xml version="1.0" encoding="UTF-8"?>
<svg width="18px" height="22px" viewBox="0 0 18 22" version="1.1" xmlns="http://www.w3.org/2000/svg" xmlns:xlink="http://www.w3.org/1999/xlink">
    <!-- Generator: sketchtool 52.6 (67491) - http://www.bohemiancoding.com/sketch -->
    <title>199EC597-B177-4803-8F55-0CF9A9C2E5AF</title>
    <desc>Created with sketchtool.</desc>
    <g id="UI" stroke="none" stroke-width="1" fill="none" fill-rule="evenodd">
        <g id="Desktop-HD---1440---sub-nav-3-col" transform="translate(-1060.000000, -1370.000000)" fill="#000000">
            <g id="content" transform="translate(0.000000, 400.000000)">
                <g id="r-col" transform="translate(1056.000000, 60.000000)">
                    <g id="contact-info" transform="translate(0.000000, 367.000000)">
                        <g id="social" transform="translate(0.000000, 371.000000)">
                            <g id="icon/-social-/-pinterest" transform="translate(4.000000, 172.000000)">
                                <g id="Path">
                                    <path d="M4.13,21.36 C4.15220445,21.517991 4.26617201,21.6476782 4.42,21.69 L4.53,21.69 C4.67525512,21.685376 4.80933541,21.610887 4.89,21.49 C5.8535441,20.2985027 6.5953139,18.943672 7.08,17.49 C7.17,17.16 7.47,15.97 7.69,15.12 C7.71162953,15.037728 7.77360995,14.9721003 7.8545123,14.9458071 C7.93541465,14.9195138 8.02413523,14.9361636 8.09,14.99 C8.81177226,15.5569503 9.70218917,15.8666605 10.62,15.87 C14.52,15.87 17.35,12.3 17.35,7.39 C17.35,3.88 14.41,0.26 9.49,0.26 C4,0.29 0.65,4.23 0.65,8 C0.65,10.35 1.65,12.15 3.27,12.82 C3.45507187,12.9110723 3.67207915,12.9103836 3.85656926,12.8181385 C4.04105937,12.7258935 4.17181468,12.5527008 4.21,12.35 L4.45,11.35 C4.56941235,11.033345 4.48202682,10.6758587 4.23,10.45 C3.72453625,9.83131698 3.46466098,9.04813121 3.5,8.25 C3.4908229,6.75874043 4.09090533,5.32838348 5.16132987,4.2900528 C6.23175442,3.25172211 7.67971038,2.6954457 9.17,2.75 C12.1,2.75 13.92,4.42 13.92,7.11 C13.92,10.61 12.39,13.25 10.36,13.25 C9.84752802,13.277465 9.34931355,13.0759813 9,12.7 C8.69551529,12.3093188 8.5918627,11.7984596 8.72,11.32 C8.85,10.78 9.02,10.22 9.19,9.67 C9.50231669,8.81007251 9.69740328,7.91200149 9.77,7 C9.81574609,6.47788873 9.63666641,5.9610468 9.27769719,5.57916464 C8.91872796,5.19728249 8.41394034,4.98660602 7.89,5 C6.45,5 5.33,6.43 5.33,8.31 C5.32922479,8.92096156 5.43759352,9.52714913 5.65,10.1 C5.6786489,10.194544 5.6786489,10.295456 5.65,10.39 L4.17,16.7 C3.88417846,18.2390344 3.87063982,19.8162859 4.13,21.36 Z"></path>
                                </g>
                            </g>
                        </g>
                    </g>
                </g>
            </g>
        </g>
    </g>
</svg>