<?xml version="1.0" encoding="UTF-8"?>
<svg width="24px" height="21px" viewBox="0 0 24 21" version="1.1" xmlns="http://www.w3.org/2000/svg" xmlns:xlink="http://www.w3.org/1999/xlink">
    <!-- Generator: sketchtool 52.6 (67491) - http://www.bohemiancoding.com/sketch -->
    <title>57ADBCDB-2717-44F1-BD8D-158C7F08073F</title>
    <desc>Created with sketchtool.</desc>
    <g id="UI" stroke="none" stroke-width="1" fill="none" fill-rule="evenodd" stroke-linecap="round" stroke-linejoin="round">
        <g id="Desktop-HD---1440---sub-nav-3-col" transform="translate(-1056.000000, -1338.000000)" stroke="#000000">
            <g id="content" transform="translate(0.000000, 400.000000)">
                <g id="r-col" transform="translate(1056.000000, 60.000000)">
                    <g id="contact-info" transform="translate(0.000000, 367.000000)">
                        <g id="social" transform="translate(0.000000, 371.000000)">
                            <g id="icon/-social-/-reddit" transform="translate(0.000000, 141.000000)">
                                <g>
                                    <ellipse id="Oval" cx="11.999" cy="13" rx="9.5" ry="6.5"></ellipse>
                                    <path d="M15.536,15.882 C14.4533864,16.4767031 13.2350906,16.7805879 12,16.764 C10.7586744,16.7808456 9.53440645,16.4737446 8.448,15.873" id="Path"></path>
                                    <circle id="Oval" cx="15.999" cy="11.5" r="1.5"></circle>
                                    <circle id="Oval" cx="7.999" cy="11.5" r="1.5"></circle>
                                    <path d="M18.743,8.423 C19.2560555,7.34980758 20.4542409,6.78673611 21.6078864,7.07668441 C22.7615319,7.3666327 23.551118,8.42929524 23.4958032,9.61753266 C23.4404885,10.8057701 22.5555931,11.7904823 21.38,11.972" id="Path"></path>
                                    <circle id="Oval" cx="19.999" cy="2.5" r="2.5"></circle>
                                    <path d="M5.256,8.423 C4.74293413,7.34998995 3.54494517,6.78699453 2.391427,7.07679269 C1.23790882,7.36659085 0.448255227,8.42894135 0.503245672,9.6170336 C0.558236117,10.8051259 1.44264448,11.789993 2.618,11.972" id="Path"></path>
                                    <path d="M12,6.5 C12,6.5 11.875,-0.9 17.5,2.5" id="Path"></path>
                                </g>
                            </g>
                        </g>
                    </g>
                </g>
            </g>
        </g>
    </g>
</svg>