<svg id="Layer_1" data-name="Layer 1" xmlns="http://www.w3.org/2000/svg" viewBox="0 0 104.38 104.38"><defs><style>.cls-1{fill:none;stroke:#282828;stroke-linecap:round;stroke-linejoin:round;stroke-width:3px;}</style></defs><path class="cls-1" d="M34.05,69.94V48.65a21.3,21.3,0,0,1,42.59,0,1.26,1.26,0,0,1-1.26,1.25H69.77a.65.65,0,0,1-.65-.65h0A14.14,14.14,0,0,0,56.6,35a13.75,13.75,0,0,0-15,12.41,11.13,11.13,0,0,0,0,1.29V69.94"/><line class="cls-1" x1="74.13" y1="56.61" x2="74.13" y2="60.37"/><line class="cls-1" x1="74.13" y1="65.38" x2="74.13" y2="69.14"/><line class="cls-1" x1="79.14" y1="56.16" x2="80.74" y2="59.57"/><line class="cls-1" x1="82.9" y1="64.08" x2="84.5" y2="67.49"/><line class="cls-1" x1="68.77" y1="56.16" x2="67.14" y2="59.57"/><line class="cls-1" x1="65.01" y1="64.08" x2="63.38" y2="67.49"/><path class="cls-1" d="M44.07,71.19V83.72A1.25,1.25,0,0,1,42.82,85h-10a1.25,1.25,0,0,1-1.25-1.25V71.19a1.25,1.25,0,0,1,1.25-1.25h10A1.25,1.25,0,0,1,44.07,71.19Z"/></svg>