<?xml version="1.0" encoding="UTF-8"?>
<svg width="25px" height="17px" viewBox="0 0 25 17" version="1.1" xmlns="http://www.w3.org/2000/svg" xmlns:xlink="http://www.w3.org/1999/xlink">
    <!-- Generator: sketchtool 52.6 (67491) - http://www.bohemiancoding.com/sketch -->
    <title>B3F9C1AF-7794-4264-A7F2-22D954B6BDB6</title>
    <desc>Created with sketchtool.</desc>
    <g id="UI" stroke="none" stroke-width="1" fill="none" fill-rule="evenodd" opacity="0.5">
        <g id="Desktop-HD---1440---sub-nav-2-col" transform="translate(-1241.000000, -1478.000000)">
            <g id="footer" transform="translate(0.000000, 1409.000000)">
                <g id="footer-primary">
                    <g transform="translate(121.000000, 62.606796)">
                        <g id="social" transform="translate(912.000000, 2.000000)">
                            <g id="icon-/-social-/-yt" transform="translate(208.000000, 0.393204)">
                                <g id="logo-youtube-clip.2.3.1" transform="translate(0.400000, 0.000000)">
                                    <g id="Filled_Icons" transform="translate(0.000000, 4.000000)" fill="#FFFFFF" fill-rule="nonzero">
                                        <path d="M20.062,0 L3.938,0 C1.767,0 0,1.768 0,3.939 L0,13.06 C0,15.232 1.767,17 3.938,17 L20.063,17 C22.233,17 24,15.232 24,13.06 L24,3.939 C24,1.768 22.233,0 20.062,0 Z M16.538,8.531 L9.769,12.862 C9.687,12.914 9.593,12.941 9.5,12.941 C9.417,12.941 9.335,12.92 9.26,12.879 C9.1,12.792 9,12.623 9,12.441 L9,3.779 C9,3.595 9.1,3.427 9.26,3.339 C9.421,3.252 9.616,3.259 9.77,3.357 L16.539,7.689 C16.683,7.781 16.77,7.939 16.77,8.11 C16.769,8.281 16.682,8.439 16.538,8.531 Z" id="Shape"></path>
                                    </g>
                                    <g id="Frames-24px">
                                        <rect id="Rectangle" x="0" y="0" width="24" height="24"></rect>
                                    </g>
                                </g>
                            </g>
                        </g>
                    </g>
                </g>
            </g>
        </g>
    </g>
</svg>