<svg width="159" height="45" viewBox="0 0 159 45" fill="none" xmlns="http://www.w3.org/2000/svg">
<path d="M158.117 39.4382C158.117 41.7831 156.092 43.6824 153.589 43.6824H5.41695C2.91453 43.6824 0.883301 41.7831 0.883301 39.4382V5.59247C0.883301 3.24877 2.91453 1.34277 5.41695 1.34277H153.588C156.093 1.34277 158.115 3.24877 158.115 5.59247L158.117 39.4382Z" fill="black"/>
<path d="M153.111 1.39407C155.838 1.39407 158.056 3.4662 158.056 6.0127V39.0127C158.056 41.5592 155.838 43.6313 153.111 43.6313H5.88889C3.16233 43.6313 0.943694 41.5592 0.943694 39.0127V6.0127C0.943694 3.4662 3.16233 1.39407 5.88889 1.39407H153.111ZM153.111 0.512699H5.88889C2.65147 0.512699 0 2.98907 0 6.0127V39.0127C0 42.0363 2.65147 44.5127 5.88889 44.5127H153.111C156.349 44.5127 159 42.0363 159 39.0127V6.0127C159 2.98907 156.349 0.512699 153.111 0.512699Z" fill="black"/>
<path d="M35.484 22.275C35.4498 18.7297 38.5921 17.0049 38.7358 16.9246C36.9562 14.5013 34.1979 14.1702 33.2285 14.1438C30.9119 13.9161 28.6647 15.4385 27.4845 15.4385C26.2808 15.4385 24.4635 14.1658 22.5049 14.2032C19.9844 14.2395 17.6265 15.6024 16.3333 17.7188C13.6645 22.0341 15.6549 28.3756 18.2119 31.8637C19.4909 33.572 20.9855 35.4794 22.9418 35.4123C24.8557 35.3386 25.5706 34.2727 27.8803 34.2727C30.1687 34.2727 30.84 35.4123 32.8352 35.3694C34.8892 35.3386 36.1824 33.6534 37.4167 31.9297C38.8948 29.9717 39.4884 28.0434 39.512 27.9444C39.4637 27.929 35.5229 26.5243 35.484 22.275Z" fill="white"/>
<path d="M31.7151 11.8492C32.7445 10.6469 33.4488 9.01122 33.2533 7.35132C31.7634 7.41292 29.9001 8.31382 28.8272 9.48972C27.8779 10.5259 27.0299 12.2243 27.249 13.8215C28.9226 13.9381 30.641 13.0328 31.7151 11.8492Z" fill="white"/>
<path d="M57.7698 11.5228C57.7698 12.8175 57.3541 13.7921 56.5237 14.4466C55.7546 15.0505 54.6617 15.353 53.246 15.353C52.544 15.353 51.9433 15.3244 51.4404 15.2672V8.19306C52.0965 8.09406 52.8031 8.04346 53.5663 8.04346C54.9149 8.04346 55.9313 8.31736 56.6168 8.86516C57.3847 9.48446 57.7698 10.37 57.7698 11.5228ZM56.4684 11.5547C56.4684 10.7154 56.2305 10.0719 55.7546 9.62306C55.2788 9.17536 54.5839 8.95096 53.6688 8.95096C53.2801 8.95096 52.9492 8.97516 52.6747 9.02576V14.4037C52.8267 14.4257 53.1046 14.4356 53.5086 14.4356C54.4532 14.4356 55.1822 14.1903 55.6957 13.6997C56.2093 13.2091 56.4684 12.4941 56.4684 11.5547Z" fill="white"/>
<path d="M64.6702 12.6534C64.6702 13.4509 64.4264 14.1043 63.9388 14.6169C63.4277 15.1438 62.7504 15.4067 61.9048 15.4067C61.0898 15.4067 60.4408 15.1548 59.9568 14.6488C59.4739 14.1439 59.2324 13.507 59.2324 12.7392C59.2324 11.9362 59.4809 11.2773 59.9803 10.7658C60.4797 10.2543 61.151 9.99805 61.9967 9.99805C62.8117 9.99805 63.4665 10.2499 63.9624 10.7548C64.4335 11.2454 64.6702 11.879 64.6702 12.6534ZM63.39 12.6908C63.39 12.2123 63.2793 11.802 63.059 11.4599C62.7999 11.0463 62.4313 10.8395 61.9519 10.8395C61.4561 10.8395 61.0792 11.0463 60.8201 11.4599C60.5986 11.802 60.4891 12.2189 60.4891 12.7117C60.4891 13.1902 60.5998 13.6005 60.8201 13.9426C61.0874 14.3562 61.4596 14.563 61.9401 14.563C62.4112 14.563 62.7811 14.3529 63.0472 13.9316C63.2757 13.5829 63.39 13.1693 63.39 12.6908Z" fill="white"/>
<path d="M73.9231 10.1038L72.1859 15.2892H71.0552L70.3356 13.0375C70.1531 12.4754 70.0047 11.9166 69.8892 11.3622H69.8669C69.7597 11.932 69.6113 12.4897 69.4205 13.0375L68.6561 15.2892H67.5125L65.8789 10.1038H67.1474L67.7751 12.5689C67.9271 13.1519 68.0519 13.7074 68.152 14.2332H68.1744C68.2663 13.7998 68.4182 13.2476 68.6325 12.5799L69.4205 10.1049H70.4263L71.1813 12.5271C71.3638 13.1178 71.5122 13.6865 71.6265 14.2343H71.6606C71.7442 13.7008 71.8703 13.1321 72.0375 12.5271L72.7112 10.1049H73.9231V10.1038Z" fill="white"/>
<path d="M80.3216 15.2892H79.0873V12.3192C79.0873 11.404 78.7152 10.9464 77.9684 10.9464C77.6022 10.9464 77.3065 11.0718 77.0769 11.3237C76.8496 11.5756 76.7341 11.8726 76.7341 12.2125V15.2881H75.4998V11.5855C75.4998 11.1301 75.4845 10.6362 75.4551 10.1016H76.5398L76.5975 10.9123H76.6317C76.7754 10.6604 76.9897 10.4525 77.2712 10.2864C77.6057 10.0928 77.9802 9.99487 78.3901 9.99487C78.9083 9.99487 79.3394 10.1511 79.6821 10.4646C80.1085 10.8485 80.3216 11.4216 80.3216 12.1828V15.2892V15.2892Z" fill="white"/>
<path d="M83.7258 15.2891H82.4927V7.72437H83.7258V15.2891Z" fill="white"/>
<path d="M90.9925 12.6534C90.9925 13.4509 90.7487 14.1043 90.2611 14.6169C89.7499 15.1438 89.0715 15.4067 88.2271 15.4067C87.4109 15.4067 86.7619 15.1548 86.279 14.6488C85.7961 14.1439 85.5547 13.507 85.5547 12.7392C85.5547 11.9362 85.8032 11.2773 86.3026 10.7658C86.802 10.2543 87.4733 9.99805 88.3178 9.99805C89.134 9.99805 89.7876 10.2499 90.2846 10.7548C90.7558 11.2454 90.9925 11.879 90.9925 12.6534ZM89.7111 12.6908C89.7111 12.2123 89.6004 11.802 89.3801 11.4599C89.1222 11.0463 88.7524 10.8395 88.2742 10.8395C87.7772 10.8395 87.4003 11.0463 87.1423 11.4599C86.9209 11.802 86.8114 12.2189 86.8114 12.7117C86.8114 13.1902 86.9221 13.6005 87.1423 13.9426C87.4097 14.3562 87.7819 14.563 88.2624 14.563C88.7335 14.563 89.1022 14.3529 89.3683 13.9316C89.598 13.5829 89.7111 13.1693 89.7111 12.6908Z" fill="white"/>
<path d="M96.9662 15.289H95.8579L95.766 14.6917H95.7319C95.3526 15.168 94.812 15.4067 94.1101 15.4067C93.586 15.4067 93.162 15.2494 92.8428 14.937C92.5531 14.6532 92.4082 14.3001 92.4082 13.881C92.4082 13.2474 92.6909 12.7645 93.2597 12.4301C93.8274 12.0957 94.626 11.9318 95.6542 11.9395V11.8427C95.6542 11.1596 95.2702 10.8186 94.5011 10.8186C93.9534 10.8186 93.4706 10.9473 93.0536 11.2025L92.8028 10.4457C93.3186 10.1476 93.9558 9.99805 94.7072 9.99805C96.1582 9.99805 96.8861 10.713 96.8861 12.143V14.0526C96.8861 14.5707 96.9132 14.9832 96.9662 15.289ZM95.6848 13.507V12.7073C94.3233 12.6853 93.6425 13.034 93.6425 13.7523C93.6425 14.0229 93.7202 14.2253 93.8792 14.3606C94.0382 14.4959 94.2408 14.563 94.4823 14.563C94.7532 14.563 95.0064 14.4827 95.2372 14.3232C95.4692 14.1626 95.6118 13.9591 95.6648 13.7094C95.6777 13.6533 95.6848 13.5851 95.6848 13.507Z" fill="white"/>
<path d="M103.98 15.2891H102.884L102.827 14.4564H102.792C102.443 15.09 101.847 15.4068 101.009 15.4068C100.34 15.4068 99.7833 15.1615 99.3416 14.6709C98.8999 14.1803 98.6797 13.5434 98.6797 12.7613C98.6797 11.922 98.9188 11.2422 99.3993 10.723C99.8645 10.239 100.435 9.99696 101.113 9.99696C101.859 9.99696 102.38 10.2313 102.677 10.701H102.701V7.72437H103.936V13.8921C103.936 14.397 103.95 14.8623 103.98 15.2891ZM102.701 13.1023V12.2377C102.701 12.0881 102.689 11.9671 102.666 11.8747C102.597 11.5975 102.447 11.3643 102.22 11.1762C101.99 10.9881 101.714 10.8935 101.394 10.8935C100.934 10.8935 100.574 11.064 100.309 11.4061C100.046 11.7482 99.9128 12.1849 99.9128 12.7184C99.9128 13.231 100.039 13.6468 100.292 13.9669C100.559 14.3079 100.92 14.4784 101.371 14.4784C101.776 14.4784 102.1 14.3365 102.346 14.0516C102.584 13.7887 102.701 13.4719 102.701 13.1023Z" fill="white"/>
<path d="M114.536 12.6534C114.536 13.4509 114.293 14.1043 113.805 14.6169C113.294 15.1438 112.618 15.4067 111.771 15.4067C110.957 15.4067 110.308 15.1548 109.823 14.6488C109.34 14.1439 109.099 13.507 109.099 12.7392C109.099 11.9362 109.347 11.2773 109.847 10.7658C110.346 10.2543 111.017 9.99805 111.864 9.99805C112.678 9.99805 113.334 10.2499 113.829 10.7548C114.3 11.2454 114.536 11.879 114.536 12.6534ZM113.257 12.6908C113.257 12.2123 113.147 11.802 112.926 11.4599C112.666 11.0463 112.299 10.8395 111.818 10.8395C111.323 10.8395 110.947 11.0463 110.686 11.4599C110.465 11.802 110.355 12.2189 110.355 12.7117C110.355 13.1902 110.466 13.6005 110.686 13.9426C110.954 14.3562 111.326 14.563 111.806 14.563C112.277 14.563 112.648 14.3529 112.915 13.9316C113.142 13.5829 113.257 13.1693 113.257 12.6908Z" fill="white"/>
<path d="M121.173 15.2892H119.94V12.3192C119.94 11.404 119.568 10.9464 118.82 10.9464C118.454 10.9464 118.158 11.0718 117.929 11.3237C117.701 11.5756 117.587 11.8726 117.587 12.2125V15.2881H116.351V11.5855C116.351 11.1301 116.337 10.6362 116.308 10.1016H117.391L117.449 10.9123H117.483C117.628 10.6604 117.842 10.4525 118.123 10.2864C118.458 10.0928 118.832 9.99487 119.243 9.99487C119.76 9.99487 120.191 10.1511 120.533 10.4646C120.961 10.8485 121.173 11.4216 121.173 12.1828V15.2892V15.2892Z" fill="white"/>
<path d="M129.48 10.9672H128.121V13.4862C128.121 14.1264 128.362 14.4465 128.84 14.4465C129.062 14.4465 129.246 14.4289 129.391 14.3926L129.422 15.2671C129.179 15.3529 128.858 15.3958 128.464 15.3958C127.976 15.3958 127.597 15.2572 127.322 14.98C127.047 14.7028 126.91 14.2364 126.91 13.5819V10.9672H126.099V10.1037H126.91V9.15326L128.12 8.81226V10.1026H129.479V10.9672H129.48Z" fill="white"/>
<path d="M136.014 15.2891H134.779V12.3411C134.779 11.4116 134.407 10.9463 133.661 10.9463C133.089 10.9463 132.698 11.2158 132.483 11.7548C132.447 11.8681 132.426 12.0067 132.426 12.1695V15.288H131.192V7.72437H132.426V10.8495H132.449C132.838 10.2808 133.395 9.99696 134.117 9.99696C134.628 9.99696 135.051 10.1532 135.386 10.4667C135.805 10.8572 136.014 11.438 136.014 12.2058V15.2891V15.2891Z" fill="white"/>
<path d="M142.755 12.4512C142.755 12.658 142.738 12.8318 142.709 12.9737H139.007C139.024 13.4863 139.2 13.8768 139.543 14.1474C139.856 14.3894 140.26 14.5104 140.755 14.5104C141.303 14.5104 141.802 14.429 142.252 14.2651L142.445 15.0659C141.919 15.2793 141.299 15.386 140.582 15.386C139.722 15.386 139.045 15.1495 138.555 14.6765C138.063 14.2035 137.819 13.5688 137.819 12.7724C137.819 11.9903 138.046 11.3391 138.504 10.8199C138.982 10.2655 139.629 9.98828 140.445 9.98828C141.244 9.98828 141.85 10.2655 142.26 10.8199C142.591 11.2599 142.755 11.8044 142.755 12.4512ZM141.577 12.1531C141.587 11.811 141.505 11.5162 141.338 11.2676C141.124 10.9475 140.797 10.7869 140.356 10.7869C139.953 10.7869 139.624 10.9431 139.374 11.2566C139.169 11.5063 139.047 11.8044 139.007 12.1531H141.577Z" fill="white"/>
<path d="M63.182 35.1671H60.5073L59.0422 30.8672H53.9494L52.5538 35.1671H49.9497L54.9953 20.5283H58.1117L63.182 35.1671ZM58.6005 29.0632L57.2755 25.2407C57.1353 24.8502 56.8727 23.9306 56.4852 22.483H56.4381C56.2838 23.1056 56.0353 24.0252 55.6937 25.2407L54.3923 29.0632H58.6005V29.0632Z" fill="white"/>
<path d="M76.1578 29.7595C76.1578 31.5547 75.6384 32.9737 74.5996 34.0154C73.6691 34.9427 72.5137 35.4058 71.1345 35.4058C69.6458 35.4058 68.5764 34.9064 67.9251 33.9076H67.878V39.4681H65.367V28.0864C65.367 26.9578 65.3352 25.7995 65.2739 24.6115H67.4823L67.6224 26.2846H67.6695C68.5069 25.024 69.7777 24.3948 71.4832 24.3948C72.8164 24.3948 73.9294 24.8865 74.8198 25.871C75.7126 26.8566 76.1578 28.1524 76.1578 29.7595ZM73.5996 29.8453C73.5996 28.8179 73.3523 27.9709 72.8553 27.3043C72.3123 26.6091 71.5833 26.2615 70.6693 26.2615C70.0498 26.2615 69.4868 26.4551 68.9839 26.8368C68.4798 27.2218 68.1501 27.7245 67.9958 28.3471C67.918 28.6375 67.8792 28.8751 67.8792 29.0621V30.8221C67.8792 31.5899 68.1312 32.2378 68.6353 32.7669C69.1394 33.296 69.7942 33.56 70.5998 33.56C71.5456 33.56 72.2817 33.219 72.8082 32.5392C73.3358 31.8583 73.5996 30.9607 73.5996 29.8453Z" fill="white"/>
<path d="M89.1566 29.7595C89.1566 31.5547 88.6372 32.9737 87.5972 34.0154C86.668 34.9427 85.5125 35.4058 84.1334 35.4058C82.6447 35.4058 81.5752 34.9064 80.9251 33.9076H80.878V39.4681H78.367V28.0864C78.367 26.9578 78.3352 25.7995 78.2739 24.6115H80.4823L80.6224 26.2846H80.6695C81.5057 25.024 82.7766 24.3948 84.4832 24.3948C85.8152 24.3948 86.9282 24.8865 87.821 25.871C88.7102 26.8566 89.1566 28.1524 89.1566 29.7595ZM86.5985 29.8453C86.5985 28.8179 86.3499 27.9709 85.8529 27.3043C85.31 26.6091 84.5833 26.2615 83.6682 26.2615C83.0475 26.2615 82.4857 26.4551 81.9816 26.8368C81.4775 27.2218 81.1489 27.7245 80.9946 28.3471C80.918 28.6375 80.878 28.8751 80.878 29.0621V30.8221C80.878 31.5899 81.13 32.2378 81.6318 32.7669C82.1359 33.2949 82.7907 33.56 83.5987 33.56C84.5444 33.56 85.2805 33.219 85.807 32.5392C86.3346 31.8583 86.5985 30.9607 86.5985 29.8453Z" fill="white"/>
<path d="M103.691 31.0618C103.691 32.307 103.228 33.3201 102.298 34.1022C101.277 34.9569 99.8557 35.3837 98.029 35.3837C96.3424 35.3837 94.9903 35.0801 93.9668 34.4718L94.5486 32.5171C95.651 33.1397 96.8606 33.4521 98.1785 33.4521C99.1243 33.4521 99.8604 33.2519 100.389 32.8537C100.916 32.4555 101.178 31.9209 101.178 31.2543C101.178 30.6603 100.962 30.1598 100.527 29.7539C100.095 29.348 99.3728 28.9707 98.3646 28.622C95.6204 27.6661 94.2495 26.2658 94.2495 24.4244C94.2495 23.221 94.73 22.2343 95.6922 21.4665C96.651 20.6976 97.93 20.3137 99.5294 20.3137C100.956 20.3137 102.141 20.5458 103.086 21.0089L102.459 22.9207C101.575 22.4719 100.576 22.2475 99.4588 22.2475C98.5754 22.2475 97.8853 22.451 97.3906 22.8558C96.9725 23.2177 96.7628 23.6588 96.7628 24.1813C96.7628 24.7599 97.0019 25.2384 97.4825 25.6146C97.9006 25.9622 98.6602 26.3384 99.7626 26.7443C101.111 27.2514 102.102 27.8443 102.739 28.5241C103.374 29.2017 103.691 30.0498 103.691 31.0618Z" fill="white"/>
<path d="M111.993 26.3713H109.225V31.4962C109.225 32.7997 109.713 33.4509 110.69 33.4509C111.139 33.4509 111.511 33.4146 111.806 33.342L111.875 35.1229C111.38 35.2956 110.729 35.3825 109.922 35.3825C108.931 35.3825 108.156 35.0998 107.596 34.5355C107.039 33.9701 106.759 33.0219 106.759 31.6898V26.3691H105.11V24.6091H106.759V22.6764L109.225 21.9812V24.6091H111.993V26.3713Z" fill="white"/>
<path d="M124.481 29.8023C124.481 31.4248 123.984 32.7569 122.992 33.7986C121.952 34.8711 120.572 35.4057 118.851 35.4057C117.192 35.4057 115.872 34.8919 114.888 33.8645C113.903 32.8372 113.411 31.5402 113.411 29.9772C113.411 28.3415 113.917 27.0017 114.934 25.96C115.948 24.9172 117.316 24.3958 119.037 24.3958C120.695 24.3958 122.03 24.9095 123.037 25.938C124 26.9357 124.481 28.2238 124.481 29.8023ZM121.875 29.8782C121.875 28.9047 121.653 28.0698 121.202 27.3735C120.675 26.5309 119.923 26.1107 118.947 26.1107C117.938 26.1107 117.171 26.532 116.645 27.3735C116.194 28.0709 115.971 28.919 115.971 29.9222C115.971 30.8957 116.194 31.7305 116.645 32.4257C117.188 33.2683 117.946 33.6886 118.925 33.6886C119.884 33.6886 120.636 33.2596 121.179 32.4038C121.642 31.6943 121.875 30.8505 121.875 29.8782Z" fill="white"/>
<path d="M132.642 26.674C132.394 26.6311 132.129 26.6091 131.851 26.6091C130.968 26.6091 130.285 26.9204 129.804 27.5441C129.386 28.0941 129.176 28.7893 129.176 29.6286V35.1671H126.666L126.69 27.9357C126.69 26.7191 126.658 25.6114 126.596 24.6126H128.783L128.875 26.6322H128.944C129.209 25.9381 129.627 25.3793 130.2 24.9602C130.759 24.5829 131.363 24.3948 132.015 24.3948C132.247 24.3948 132.456 24.4102 132.642 24.4377V26.674Z" fill="white"/>
<path d="M143.873 29.3899C143.873 29.8101 143.843 30.1643 143.781 30.4536H136.248C136.277 31.4964 136.641 32.2939 137.341 32.8439C137.976 33.3356 138.796 33.582 139.805 33.582C140.92 33.582 141.938 33.4159 142.853 33.0826L143.246 34.7106C142.177 35.1462 140.914 35.3629 139.457 35.3629C137.705 35.3629 136.329 34.8811 135.328 33.9186C134.329 32.9561 133.829 31.6636 133.829 30.0422C133.829 28.4505 134.294 27.125 135.225 26.0679C136.201 24.9393 137.519 24.375 139.177 24.375C140.806 24.375 142.039 24.9393 142.876 26.0679C143.539 26.9644 143.873 28.0732 143.873 29.3899ZM141.478 28.7816C141.495 28.0864 141.331 27.4858 140.991 26.9787C140.556 26.3264 139.888 26.0008 138.99 26.0008C138.169 26.0008 137.501 26.3187 136.991 26.9567C136.573 27.4638 136.324 28.0721 136.248 28.7805H141.478V28.7816Z" fill="white"/>
</svg>
