<svg width="140" height="45" viewBox="0 0 140 45" fill="none" xmlns="http://www.w3.org/2000/svg">
<path d="M134.815 44.5127H5.18518C2.33463 44.5127 0 42.0363 0 39.0127V6.0127C0 2.98907 2.33463 0.512699 5.18518 0.512699H134.815C137.665 0.512699 140 2.98907 140 6.0127V39.0127C140 42.0363 137.665 44.5127 134.815 44.5127Z" fill="black"/>
<path d="M134.815 1.39407C137.216 1.39407 139.169 3.4662 139.169 6.0127V39.0127C139.169 41.5592 137.216 43.6313 134.815 43.6313H5.18518C2.78444 43.6313 0.830926 41.5592 0.830926 39.0127V6.0127C0.830926 3.4662 2.78444 1.39407 5.18518 1.39407H134.815ZM134.815 0.512699H5.18518C2.33463 0.512699 0 2.98907 0 6.0127V39.0127C0 42.0363 2.33463 44.5127 5.18518 44.5127H134.815C137.665 44.5127 140 42.0363 140 39.0127V6.0127C140 2.98907 137.665 0.512699 134.815 0.512699Z" fill="black"/>
<path d="M10.0439 8.8053C9.73928 9.14355 9.56299 9.67017 9.56299 10.3522V34.6787C9.56299 35.3607 9.73928 35.8873 10.0439 36.2256L10.1191 36.2998L22.9706 22.6736V22.3518L10.1191 8.72555L10.0439 8.8053Z" fill="white"/>
<path d="M28.805 27.2178L24.5259 22.6734V22.3516L28.8101 17.8073L28.9061 17.8664L33.9798 20.9285C35.4277 21.7975 35.4277 23.2275 33.9798 24.102L28.9061 27.1586L28.805 27.2178V27.2178Z" fill="white"/>
<path d="M28.1286 28.0049L23.7484 23.3587L10.8218 37.0716C11.3027 37.6079 12.087 37.6725 12.9788 37.1362L28.1286 28.0049" fill="white"/>
<path d="M28.1286 17.0204L12.9788 7.88901C12.087 7.35826 11.3027 7.42288 10.8218 7.95913L23.7484 21.6665L28.1286 17.0204Z" fill="white"/>
<path d="M49.1739 11.7808C49.1739 12.6993 48.9146 13.435 48.4039 13.9836C47.8167 14.634 47.0519 14.9612 46.1146 14.9612C45.2189 14.9612 44.4541 14.6285 43.8267 13.9726C43.198 13.3071 42.8843 12.4903 42.8843 11.5127C42.8843 10.5351 43.198 9.71833 43.8267 9.05833C44.4541 8.39696 45.2189 8.06421 46.1146 8.06421C46.5606 8.06421 46.9858 8.16183 47.3915 8.34333C47.7959 8.52621 48.1252 8.77371 48.3637 9.07896L47.8219 9.65921C47.4058 9.13808 46.8393 8.88096 46.1146 8.88096C45.4613 8.88096 44.8948 9.12296 44.4139 9.61108C43.9382 10.1006 43.6996 10.7345 43.6996 11.5127C43.6996 12.291 43.9382 12.9303 44.4139 13.4198C44.8948 13.9025 45.4613 14.15 46.1146 14.15C46.8082 14.15 47.3915 13.9025 47.8517 13.4143C48.155 13.0912 48.3274 12.6457 48.3728 12.0765H46.1146V11.2817H49.1272C49.1635 11.4536 49.1739 11.62 49.1739 11.7808V11.7808Z" fill="white" stroke="white" stroke-width="0.16" stroke-miterlimit="10"/>
<path d="M53.9532 9.02521H51.1234V11.1152H53.6745V11.91H51.1234V14H53.9532V14.8098H50.3223V8.21533H53.9532V9.02521Z" fill="white" stroke="white" stroke-width="0.16" stroke-miterlimit="10"/>
<path d="M57.3264 14.8098H56.5253V9.02521H54.7896V8.21533H59.0634V9.02521H57.3264V14.8098V14.8098Z" fill="white" stroke="white" stroke-width="0.16" stroke-miterlimit="10"/>
<path d="M62.1562 14.8098V8.21533H62.9561V14.8098H62.1562Z" fill="white" stroke="white" stroke-width="0.16" stroke-miterlimit="10"/>
<path d="M66.5017 14.8098H65.7071V9.02521H63.9648V8.21533H68.2439V9.02521H66.5017V14.8098Z" fill="white" stroke="white" stroke-width="0.16" stroke-miterlimit="10"/>
<path d="M76.3354 13.9616C75.7223 14.6285 74.9626 14.9612 74.0565 14.9612C73.1452 14.9612 72.3856 14.6285 71.7724 13.9616C71.1606 13.2961 70.856 12.4793 70.856 11.5127C70.856 10.5461 71.1606 9.72933 71.7724 9.06383C72.3856 8.39696 73.1452 8.06421 74.0565 8.06421C74.9574 8.06421 75.7171 8.39696 76.3302 9.06933C76.9473 9.74033 77.2519 10.5516 77.2519 11.5127C77.2519 12.4793 76.9473 13.2961 76.3354 13.9616ZM72.3648 13.4088C72.8263 13.9025 73.3876 14.15 74.0565 14.15C74.7202 14.15 75.2867 13.9025 75.743 13.4088C76.2032 12.9152 76.4365 12.2813 76.4365 11.5127C76.4365 10.7441 76.2032 10.1102 75.743 9.61658C75.2867 9.12296 74.7202 8.87546 74.0565 8.87546C73.3876 8.87546 72.8263 9.12296 72.3648 9.61658C71.9047 10.1102 71.6713 10.7441 71.6713 11.5127C71.6713 12.2813 71.9047 12.9152 72.3648 13.4088V13.4088Z" fill="white" stroke="white" stroke-width="0.16" stroke-miterlimit="10"/>
<path d="M78.3755 14.8098V8.21533H79.3477L82.3707 13.3441H82.4057L82.3707 12.0763V8.21533H83.1705V14.8098H82.3357L79.1701 9.42808H79.1351L79.1701 10.7013V14.8098H78.3755V14.8098Z" fill="white" stroke="white" stroke-width="0.16" stroke-miterlimit="10"/>
<path d="M70.6586 24.4406C68.2228 24.4406 66.233 26.4068 66.233 29.1197C66.233 31.8105 68.2228 33.7974 70.6586 33.7974C73.0995 33.7974 75.0893 31.8105 75.0893 29.1197C75.0893 26.4068 73.0995 24.4406 70.6586 24.4406ZM70.6586 31.9549C69.3221 31.9549 68.1723 30.7848 68.1723 29.1197C68.1723 27.4325 69.3221 26.2831 70.6586 26.2831C71.995 26.2831 73.15 27.4325 73.15 29.1197C73.15 30.7848 71.995 31.9549 70.6586 31.9549V31.9549ZM61.0025 24.4406C58.5615 24.4406 56.5769 26.4068 56.5769 29.1197C56.5769 31.8105 58.5615 33.7974 61.0025 33.7974C63.4421 33.7974 65.428 31.8105 65.428 29.1197C65.428 26.4068 63.4421 24.4406 61.0025 24.4406ZM61.0025 31.9549C59.6647 31.9549 58.511 30.7848 58.511 29.1197C58.511 27.4325 59.6647 26.2831 61.0025 26.2831C62.3389 26.2831 63.4888 27.4325 63.4888 29.1197C63.4888 30.7848 62.3389 31.9549 61.0025 31.9549ZM49.5121 25.8747V27.8629H53.9882C53.8573 28.9739 53.5073 29.7907 52.9706 30.3599C52.3173 31.0474 51.2997 31.8105 49.5121 31.8105C46.7575 31.8105 44.6004 29.4524 44.6004 26.5306C44.6004 23.6087 46.7575 21.2506 49.5121 21.2506C51.0015 21.2506 52.0852 21.8679 52.8851 22.6682L54.206 21.2671C53.0873 20.1341 51.5991 19.2637 49.5121 19.2637C45.7347 19.2637 42.5601 22.5238 42.5601 26.5306C42.5601 30.5373 45.7347 33.7974 49.5121 33.7974C51.5538 33.7974 53.0873 33.0879 54.2928 31.7569C55.5282 30.4465 55.9132 28.604 55.9132 27.1163C55.9132 26.6543 55.8769 26.2294 55.8121 25.8747H49.5121ZM96.4976 27.416C96.1334 26.3697 95.0095 24.4406 92.7202 24.4406C90.4517 24.4406 88.563 26.3367 88.563 29.1197C88.563 31.7404 90.4323 33.7974 92.938 33.7974C94.9641 33.7974 96.1334 32.487 96.6143 31.7239L95.1106 30.661C94.6089 31.4393 93.9258 31.9549 92.938 31.9549C91.9567 31.9549 91.2528 31.4778 90.8017 30.5373L96.7012 27.9482L96.4976 27.416V27.416ZM90.4828 28.9739C90.4323 27.1699 91.8037 26.2459 92.7863 26.2459C93.5563 26.2459 94.2097 26.6543 94.4275 27.2387L90.4828 28.9739V28.9739ZM85.6878 33.5128H87.6271V19.7628H85.6878V33.5128ZM82.5119 25.4828H82.4471C82.0115 24.9355 81.1806 24.4406 80.128 24.4406C77.9191 24.4406 75.8995 26.4975 75.8995 29.1348C75.8995 31.7569 77.9191 33.7974 80.128 33.7974C81.1806 33.7974 82.0115 33.2983 82.4471 32.7345H82.5119V33.4055C82.5119 35.1944 81.611 36.1555 80.1578 36.1555C78.973 36.1555 78.238 35.248 77.9347 34.4849L76.2482 35.2315C76.7343 36.4718 78.0215 37.998 80.1578 37.998C82.4315 37.998 84.35 36.579 84.35 33.1264V24.7252H82.5119V25.4828V25.4828ZM80.2939 31.9549C78.9575 31.9549 77.8387 30.7683 77.8387 29.1348C77.8387 27.4862 78.9575 26.2831 80.2939 26.2831C81.611 26.2831 82.6493 27.4862 82.6493 29.1348C82.6493 30.7683 81.611 31.9549 80.2939 31.9549V31.9549ZM105.577 19.7628H100.939V33.5128H102.873V28.3029H105.577C107.725 28.3029 109.831 26.6543 109.831 24.0322C109.831 21.4114 107.72 19.7628 105.577 19.7628V19.7628ZM105.627 26.3903H102.873V21.6754H105.627C107.072 21.6754 107.896 22.9473 107.896 24.0322C107.896 25.0964 107.072 26.3903 105.627 26.3903ZM117.583 24.4144C116.186 24.4144 114.733 25.0689 114.135 26.5195L115.851 27.2827C116.221 26.5195 116.9 26.272 117.618 26.272C118.622 26.272 119.639 26.9114 119.655 28.0403V28.1847C119.305 27.9702 118.555 27.6526 117.634 27.6526C115.785 27.6526 113.902 28.7319 113.902 30.7463C113.902 32.5888 115.416 33.7754 117.118 33.7754C118.419 33.7754 119.137 33.1525 119.589 32.4279H119.655V33.4908H121.523V28.2163C121.523 25.7784 119.806 24.4144 117.583 24.4144ZM117.35 31.9494C116.717 31.9494 115.836 31.6167 115.836 30.7848C115.836 29.7205 116.935 29.3122 117.887 29.3122C118.738 29.3122 119.137 29.5115 119.655 29.7742C119.503 31.0474 118.47 31.9494 117.35 31.9494V31.9494ZM128.328 24.7155L126.105 30.6762H126.039L123.741 24.7155H121.655L125.108 33.0453L123.138 37.6804H125.159L130.48 24.7155H128.328V24.7155ZM110.894 33.5128H112.834V19.7628H110.894V33.5128Z" fill="white"/>
</svg>
