<svg width="16" height="20" viewBox="0 0 16 20" fill="none" xmlns="http://www.w3.org/2000/svg">
<g id="USWDS Components">
<g id="Icons">
<g id="Fill">
<path id="Vector" fill-rule="evenodd" clip-rule="evenodd" d="M10.7501 0.833008L15.3334 5.41634V17.333C15.3334 18.2955 14.5817 19.091 13.6364 19.1613L13.5001 19.1663H2.50008C1.53758 19.1663 0.742127 18.4146 0.671801 17.4693L0.666748 17.333V2.66634C0.666748 1.70384 1.41845 0.908387 2.36378 0.838061L2.50008 0.833008H10.7501ZM9.83342 2.66634H2.50008V17.333H13.5001V6.33301H9.83342V2.66634ZM6.86342 4.50884C8.05508 4.62801 8.91675 5.71884 8.91675 6.91967V12.7497H7.08342V6.79134C7.08342 6.53467 6.88175 6.33301 6.62508 6.33301C6.36841 6.33301 6.16675 6.53467 6.16675 6.79134V12.7497C6.16675 13.758 6.99175 14.583 8.00008 14.583C9.00842 14.583 9.83342 13.758 9.83342 12.7497V8.16634H11.6667V12.7497C11.6667 14.7755 10.0259 16.4163 8.00008 16.4163C5.97425 16.4163 4.33341 14.7755 4.33341 12.7497V6.79134C4.33341 5.44384 5.48842 4.37134 6.86342 4.50884Z" fill="#284F77"/>
</g>
</g>
</g>
</svg>
